<?xml version="1.0" standalone="no"?>
<!DOCTYPE svg PUBLIC "-//W3C//DTD SVG 20010904//EN"
 "http://www.w3.org/TR/2001/REC-SVG-20010904/DTD/svg10.dtd">
<svg version="1.0" xmlns="http://www.w3.org/2000/svg"
 width="1042.000000pt" height="1042.000000pt" viewBox="0 0 1042.000000 1042.000000"
 preserveAspectRatio="xMidYMid meet">
<metadata>
Created by potrace 1.14, written by Peter Selinger 2001-2017
</metadata>
<g transform="translate(0.000000,1042.000000) scale(0.100000,-0.100000)"
fill="#000000" stroke="none">
<path d="M4870 10409 c-559 -38 -1094 -160 -1618 -370 -175 -70 -539 -251
-702 -349 -401 -241 -683 -463 -1020 -800 -420 -420 -721 -834 -979 -1350
-494 -989 -660 -2091 -480 -3190 131 -798 471 -1595 959 -2249 149 -201 287
-359 490 -562 288 -289 490 -455 814 -671 1099 -730 2422 -1012 3736 -797 798
131 1595 471 2249 959 201 149 359 287 562 490 289 288 455 490 671 814 730
1099 1012 2422 797 3736 -131 798 -471 1595 -959 2249 -153 205 -289 360 -500
571 -420 420 -834 721 -1350 979 -638 318 -1289 493 -2015 541 -174 11 -476
11 -655 -1z m127 -4421 c-4 -1043 -3 -1008 -57 -1218 -164 -639 -682 -1137
-1322 -1270 -177 -37 -287 -40 -1375 -40 l-1063 0 0 250 0 250 1093 0 c961 0
1105 2 1187 16 521 90 934 503 1024 1024 14 80 16 193 16 777 l0 683 -1660 0
-1660 0 0 250 0 250 1911 0 1910 0 -4 -972z m3128 962 c259 -30 477 -110 700
-257 131 -87 326 -281 414 -413 157 -236 258 -508 297 -803 24 -185 15 -499
-21 -667 -160 -763 -689 -1268 -1404 -1340 -63 -6 -455 -10 -1017 -10 l-914 0
0 250 0 250 939 0 c1005 0 1025 1 1174 51 393 131 659 466 743 935 24 134 24
404 0 529 -21 111 -69 269 -106 353 -68 149 -212 329 -344 429 -81 61 -260
147 -366 175 l-85 22 -1102 3 -1103 4 0 -1501 0 -1500 -250 0 -250 0 0 1750 0
1750 1303 0 c825 0 1335 -4 1392 -10z"/>
</g>
</svg>
