<svg width="1340" height="371" viewBox="0 0 1340 371" fill="none" xmlns="http://www.w3.org/2000/svg">
<path d="M102.625 141.188C102.625 145.354 102.083 149.354 101 153.188C99.9583 156.979 98.4583 160.542 96.5 163.875C94.5833 167.167 92.2708 170.188 89.5625 172.938C86.8542 175.646 83.8333 177.979 80.5 179.938C77.2083 181.854 73.6458 183.354 69.8125 184.438C65.9792 185.479 62 186 57.875 186H4.75V173.188H57.875C62.2917 173.188 66.4375 172.354 70.3125 170.688C74.1875 169.021 77.5625 166.75 80.4375 163.875C83.3542 160.958 85.6458 157.562 87.3125 153.688C89.0208 149.771 89.875 145.604 89.875 141.188V109.188H4.75V96.375H102.625V141.188ZM204.465 186H191.652V166.688H142.34V153.625H191.652V128.25H158.34C155.215 128.25 152.277 128.854 149.527 130.062C146.777 131.229 144.382 132.833 142.34 134.875C140.298 136.917 138.673 139.312 137.465 142.062C136.298 144.771 135.715 147.688 135.715 150.812V186H122.777V150.812C122.777 145.896 123.715 141.292 125.59 137C127.465 132.708 130.007 128.958 133.215 125.75C136.423 122.542 140.194 120.021 144.527 118.188C148.861 116.312 153.465 115.375 158.34 115.375H204.465V186ZM291.43 186C291.43 181.333 290.638 176.812 289.055 172.438C287.513 168.021 285.409 163.875 282.742 160C280.117 156.083 277.055 152.438 273.555 149.062C270.097 145.688 266.451 142.688 262.617 140.062C258.784 137.396 254.867 135.167 250.867 133.375C246.909 131.542 243.138 130.188 239.555 129.312V186H226.742V115.625H233.68V115.75C238.263 116 243.138 117.021 248.305 118.812C253.513 120.562 258.68 122.958 263.805 126C268.972 129 273.93 132.583 278.68 136.75C283.472 140.875 287.722 145.438 291.43 150.438V115.625H304.18V186H291.43ZM339.145 186H326.457V115.625H339.145V186ZM400.36 186H387.547V128.25H353.672V115.625H434.172V128.25H400.36V186ZM531.013 150.688C531.013 155.562 530.242 160.146 528.7 164.438C527.158 168.688 524.95 172.417 522.075 175.625C519.242 178.833 515.825 181.375 511.825 183.25C507.867 185.083 503.45 186 498.575 186H476.325C471.45 186 467.013 185.083 463.013 183.25C459.013 181.375 455.575 178.833 452.7 175.625C449.867 172.417 447.679 168.688 446.138 164.438C444.596 160.146 443.825 155.562 443.825 150.688C443.825 145.854 444.596 141.312 446.138 137.062C447.679 132.812 449.867 129.104 452.7 125.938C455.575 122.729 459.013 120.208 463.013 118.375C467.013 116.542 471.45 115.625 476.325 115.625H498.575C503.45 115.625 507.867 116.542 511.825 118.375C515.825 120.208 519.242 122.729 522.075 125.938C524.95 129.104 527.158 132.812 528.7 137.062C530.242 141.312 531.013 145.854 531.013 150.688ZM518.2 150.688C518.2 147.604 517.742 144.708 516.825 142C515.95 139.25 514.658 136.875 512.95 134.875C511.283 132.833 509.242 131.229 506.825 130.062C504.408 128.854 501.658 128.25 498.575 128.25H476.325C473.242 128.25 470.471 128.854 468.013 130.062C465.596 131.229 463.533 132.833 461.825 134.875C460.158 136.875 458.867 139.25 457.95 142C457.075 144.708 456.638 147.604 456.638 150.688C456.638 153.771 457.075 156.688 457.95 159.438C458.867 162.146 460.158 164.521 461.825 166.562C463.533 168.604 465.596 170.229 468.013 171.438C470.471 172.604 473.242 173.188 476.325 173.188H498.575C501.658 173.188 504.408 172.604 506.825 171.438C509.242 170.229 511.283 168.604 512.95 166.562C514.658 164.521 515.95 162.146 516.825 159.438C517.742 156.688 518.2 153.771 518.2 150.688ZM631.852 186H614.415L594.415 166.938H568.477V154.25H603.915C605.707 154.25 607.394 153.896 608.977 153.188C610.561 152.479 611.936 151.542 613.102 150.375C614.269 149.167 615.186 147.771 615.852 146.188C616.519 144.604 616.852 142.938 616.852 141.188C616.852 139.396 616.519 137.729 615.852 136.188C615.186 134.604 614.269 133.229 613.102 132.062C611.936 130.896 610.561 129.979 608.977 129.312C607.394 128.604 605.707 128.25 603.915 128.25H561.79V186H548.977V115.625H603.915C607.457 115.625 610.79 116.312 613.915 117.688C617.04 119.021 619.748 120.854 622.04 123.188C624.373 125.479 626.207 128.188 627.54 131.312C628.873 134.396 629.54 137.688 629.54 141.188C629.54 144.062 629.082 146.833 628.165 149.5C627.248 152.125 625.957 154.542 624.29 156.75C622.665 158.917 620.727 160.792 618.477 162.375C616.227 163.958 613.769 165.125 611.102 165.875L631.852 186ZM725.755 165.25C725.755 168.125 725.213 170.833 724.13 173.375C723.047 175.875 721.568 178.062 719.693 179.938C717.859 181.812 715.672 183.292 713.13 184.375C710.63 185.458 707.943 186 705.068 186H645.255V173.188H705.068C706.193 173.188 707.234 173 708.193 172.625C709.193 172.208 710.047 171.646 710.755 170.938C711.505 170.188 712.088 169.333 712.505 168.375C712.922 167.417 713.13 166.375 713.13 165.25C713.13 164.125 712.922 163.083 712.505 162.125C712.088 161.125 711.505 160.271 710.755 159.562C710.047 158.812 709.193 158.229 708.193 157.812C707.234 157.396 706.193 157.188 705.068 157.188H665.88C663.047 157.188 660.38 156.646 657.88 155.562C655.38 154.479 653.193 153 651.318 151.125C649.443 149.208 647.963 146.979 646.88 144.438C645.797 141.896 645.255 139.188 645.255 136.312C645.255 133.521 645.797 130.875 646.88 128.375C647.963 125.833 649.443 123.625 651.318 121.75C653.193 119.875 655.38 118.396 657.88 117.312C660.38 116.188 663.047 115.625 665.88 115.625H721.068V128.25H665.88C664.797 128.25 663.755 128.479 662.755 128.938C661.797 129.354 660.963 129.938 660.255 130.688C659.547 131.396 658.984 132.25 658.568 133.25C658.151 134.208 657.943 135.229 657.943 136.312C657.943 137.438 658.151 138.5 658.568 139.5C658.984 140.458 659.547 141.312 660.255 142.062C660.963 142.771 661.797 143.333 662.755 143.75C663.755 144.167 664.797 144.375 665.88 144.375H705.068C707.943 144.375 710.63 144.938 713.13 146.062C715.672 147.146 717.859 148.646 719.693 150.562C721.568 152.438 723.047 154.646 724.13 157.188C725.213 159.729 725.755 162.417 725.755 165.25Z" fill="#FFC700"/>
<path d="M929.375 141.188C929.375 147.396 928.375 153.229 926.375 158.688C924.417 164.146 921.625 168.896 918 172.938C914.375 176.979 910.021 180.167 904.938 182.5C899.896 184.833 894.292 186 888.125 186H842.938V173.188H888.125C892.542 173.188 896.5 172.354 900 170.688C903.542 169.021 906.521 166.75 908.938 163.875C911.396 160.958 913.271 157.562 914.562 153.688C915.896 149.771 916.562 145.604 916.562 141.188C916.562 136.771 915.896 132.625 914.562 128.75C913.271 124.875 911.396 121.5 908.938 118.625C906.521 115.708 903.542 113.417 900 111.75C896.5 110.042 892.542 109.188 888.125 109.188H836.562V186H823.75V96.375H888.125C894.292 96.375 899.896 97.5625 904.938 99.9375C910.021 102.271 914.375 105.479 918 109.562C921.625 113.604 924.417 118.354 926.375 123.812C928.375 129.229 929.375 135.021 929.375 141.188ZM960.715 186H948.027V115.625H960.715V186ZM1065.87 186H1048.43L1028.43 166.938H1002.49V154.25H1037.93C1039.72 154.25 1041.41 153.896 1042.99 153.188C1044.58 152.479 1045.95 151.542 1047.12 150.375C1048.28 149.167 1049.2 147.771 1049.87 146.188C1050.53 144.604 1050.87 142.938 1050.87 141.188C1050.87 139.396 1050.53 137.729 1049.87 136.188C1049.2 134.604 1048.28 133.229 1047.12 132.062C1045.95 130.896 1044.58 129.979 1042.99 129.312C1041.41 128.604 1039.72 128.25 1037.93 128.25H995.805V186H982.992V115.625H1037.93C1041.47 115.625 1044.8 116.312 1047.93 117.688C1051.05 119.021 1053.76 120.854 1056.05 123.188C1058.39 125.479 1060.22 128.188 1061.55 131.312C1062.89 134.396 1063.55 137.688 1063.55 141.188C1063.55 144.062 1063.1 146.833 1062.18 149.5C1061.26 152.125 1059.97 154.542 1058.3 156.75C1056.68 158.917 1054.74 160.792 1052.49 162.375C1050.24 163.958 1047.78 165.125 1045.12 165.875L1065.87 186ZM1156.08 186H1082.58V115.375H1156.08V128.25H1095.52V173.062H1156.08V186ZM1147.89 156.812H1101.58V143.875H1147.89V156.812ZM1247.67 186H1202.23C1197.28 186 1192.78 185.083 1188.73 183.25C1184.69 181.417 1181.23 178.917 1178.36 175.75C1175.48 172.542 1173.26 168.792 1171.67 164.5C1170.13 160.167 1169.36 155.521 1169.36 150.562C1169.36 145.646 1170.13 141.062 1171.67 136.812C1173.26 132.521 1175.48 128.792 1178.36 125.625C1181.23 122.458 1184.69 119.958 1188.73 118.125C1192.78 116.292 1197.28 115.375 1202.23 115.375H1247.67V128.25H1202.23C1199.15 128.25 1196.36 128.833 1193.86 130C1191.4 131.167 1189.32 132.75 1187.61 134.75C1185.9 136.75 1184.59 139.104 1183.67 141.812C1182.76 144.521 1182.3 147.438 1182.3 150.562C1182.3 153.729 1182.76 156.688 1183.67 159.438C1184.59 162.146 1185.9 164.521 1187.61 166.562C1189.32 168.562 1191.4 170.146 1193.86 171.312C1196.36 172.479 1199.15 173.062 1202.23 173.062H1247.67V186ZM1304.7 186H1291.89V128.25H1258.01V115.625H1338.51V128.25H1304.7V186Z" fill="#F7F9FA"/>
<line x1="1335" y1="246" x2="5" y2="246" stroke="#F7F9FA" stroke-width="10" stroke-linecap="round"/>
<path d="M70.4751 315.435C70.4751 318.16 69.9479 320.732 68.8936 323.149C67.8649 325.541 66.4505 327.637 64.6504 329.437C62.876 331.211 60.793 332.613 58.4014 333.642C56.0098 334.67 53.451 335.185 50.7251 335.185H18.9785V327.393H50.7251C52.3709 327.393 53.9139 327.084 55.354 326.467C56.7941 325.824 58.0413 324.962 59.0957 323.882C60.1758 322.802 61.0244 321.542 61.6416 320.102C62.2588 318.636 62.5674 317.08 62.5674 315.435C62.5674 313.789 62.2588 312.246 61.6416 310.806C61.0244 309.366 60.1758 308.118 59.0957 307.064C58.0413 305.984 56.7941 305.135 55.354 304.518C53.9139 303.901 52.3709 303.592 50.7251 303.592H14.5425V351H6.63477V295.685H50.7251C53.451 295.685 56.0098 296.212 58.4014 297.266C60.793 298.295 62.876 299.709 64.6504 301.509C66.4505 303.284 67.8649 305.367 68.8936 307.758C69.9479 310.15 70.4751 312.709 70.4751 315.435ZM127.992 315.435H98.3673C97.5444 315.435 96.7729 315.602 96.0529 315.936C95.3328 316.245 94.7028 316.669 94.1628 317.209C93.6227 317.749 93.1984 318.379 92.8898 319.099C92.5812 319.819 92.4269 320.578 92.4269 321.375V351H84.5192V321.375C84.5192 319.446 84.8792 317.646 85.5993 315.975C86.3193 314.303 87.3094 312.85 88.5695 311.616C89.8296 310.356 91.2954 309.366 92.9669 308.646C94.6385 307.925 96.4386 307.565 98.3673 307.565H127.992V315.435ZM193.07 329.283C193.07 332.266 192.504 335.069 191.373 337.692C190.241 340.315 188.698 342.617 186.744 344.597C184.815 346.551 182.539 348.107 179.916 349.264C177.293 350.396 174.49 350.974 171.507 351H159.356C156.373 350.974 153.57 350.396 150.947 349.264C148.324 348.107 146.035 346.551 144.081 344.597C142.152 342.617 140.622 340.315 139.491 337.692C138.359 335.069 137.793 332.266 137.793 329.283C137.793 326.3 138.359 323.497 139.491 320.874C140.622 318.225 142.152 315.923 144.081 313.969C146.035 311.989 148.324 310.433 150.947 309.301C153.57 308.144 156.373 307.565 159.356 307.565H171.507C173.487 307.565 175.403 307.823 177.255 308.337C179.106 308.851 180.829 309.584 182.424 310.536C184.018 311.487 185.471 312.632 186.783 313.969C188.094 315.28 189.213 316.746 190.138 318.366C191.064 319.961 191.784 321.684 192.299 323.535C192.813 325.387 193.07 327.303 193.07 329.283ZM185.201 329.283C185.201 327.38 184.841 325.592 184.121 323.921C183.401 322.249 182.424 320.796 181.189 319.562C179.955 318.302 178.502 317.312 176.83 316.592C175.185 315.846 173.41 315.46 171.507 315.435H159.356C157.453 315.46 155.666 315.846 153.994 316.592C152.349 317.312 150.909 318.302 149.674 319.562C148.44 320.796 147.463 322.249 146.742 323.921C146.048 325.592 145.701 327.38 145.701 329.283C145.701 331.186 146.048 332.973 146.742 334.645C147.463 336.316 148.44 337.782 149.674 339.042C150.909 340.276 152.349 341.266 153.994 342.012C155.666 342.732 157.453 343.092 159.356 343.092H171.507C173.41 343.092 175.185 342.732 176.83 342.012C178.502 341.266 179.955 340.276 181.189 339.042C182.424 337.782 183.401 336.316 184.121 334.645C184.841 332.973 185.201 331.186 185.201 329.283ZM303.63 351H268.026C264.194 351 260.71 350.28 257.572 348.84C254.435 347.4 251.748 345.432 249.51 342.938C247.299 340.444 245.589 337.512 244.38 334.143C243.171 330.774 242.567 327.174 242.567 323.342C242.567 319.536 243.171 315.962 244.38 312.619C245.589 309.25 247.299 306.318 249.51 303.824C251.748 301.304 254.435 299.323 257.572 297.883C260.71 296.417 264.194 295.685 268.026 295.685H303.63V303.592H268.026C265.3 303.592 262.844 304.119 260.658 305.174C258.498 306.202 256.659 307.617 255.142 309.417C253.651 311.191 252.493 313.274 251.671 315.666C250.873 318.058 250.475 320.616 250.475 323.342C250.475 326.068 250.873 328.64 251.671 331.057C252.493 333.449 253.651 335.545 255.142 337.345C256.659 339.119 258.498 340.521 260.658 341.549C262.844 342.578 265.3 343.092 268.026 343.092H303.63V351ZM371.061 329.283C371.061 332.266 370.495 335.069 369.364 337.692C368.232 340.315 366.689 342.617 364.735 344.597C362.806 346.551 360.53 348.107 357.907 349.264C355.284 350.396 352.481 350.974 349.498 351H337.347C334.364 350.974 331.561 350.396 328.938 349.264C326.315 348.107 324.026 346.551 322.072 344.597C320.143 342.617 318.613 340.315 317.481 337.692C316.35 335.069 315.784 332.266 315.784 329.283C315.784 326.3 316.35 323.497 317.481 320.874C318.613 318.225 320.143 315.923 322.072 313.969C324.026 311.989 326.315 310.433 328.938 309.301C331.561 308.144 334.364 307.565 337.347 307.565H349.498C351.478 307.565 353.394 307.823 355.245 308.337C357.097 308.851 358.82 309.584 360.414 310.536C362.009 311.487 363.462 312.632 364.773 313.969C366.085 315.28 367.203 316.746 368.129 318.366C369.055 319.961 369.775 321.684 370.289 323.535C370.804 325.387 371.061 327.303 371.061 329.283ZM363.192 329.283C363.192 327.38 362.832 325.592 362.112 323.921C361.392 322.249 360.414 320.796 359.18 319.562C357.946 318.302 356.493 317.312 354.821 316.592C353.175 315.846 351.401 315.46 349.498 315.435H337.347C335.444 315.46 333.657 315.846 331.985 316.592C330.339 317.312 328.899 318.302 327.665 319.562C326.43 320.796 325.453 322.249 324.733 323.921C324.039 325.592 323.692 327.38 323.692 329.283C323.692 331.186 324.039 332.973 324.733 334.645C325.453 336.316 326.43 337.782 327.665 339.042C328.899 340.276 330.339 341.266 331.985 342.012C333.657 342.732 335.444 343.092 337.347 343.092H349.498C351.401 343.092 353.175 342.732 354.821 342.012C356.493 341.266 357.946 340.276 359.18 339.042C360.414 337.782 361.392 336.316 362.112 334.645C362.832 332.973 363.192 331.186 363.192 329.283ZM394.324 351H386.416V307.565H428.077C431.06 307.565 433.863 308.144 436.486 309.301C439.109 310.433 441.385 311.989 443.313 313.969C445.268 315.923 446.811 318.225 447.942 320.874C449.074 323.497 449.64 326.3 449.64 329.283V351H441.732V329.283C441.732 327.38 441.372 325.592 440.652 323.921C439.932 322.249 438.955 320.796 437.72 319.562C436.486 318.302 435.033 317.312 433.361 316.592C431.715 315.846 429.954 315.46 428.077 315.435H421.982V351H414.074V315.435H394.324V351ZM474.947 351H467.04V307.565H508.7C511.683 307.565 514.486 308.144 517.109 309.301C519.732 310.433 522.008 311.989 523.937 313.969C525.891 315.923 527.434 318.225 528.566 320.874C529.697 323.497 530.263 326.3 530.263 329.283V351H522.355V329.283C522.355 327.38 521.995 325.592 521.275 323.921C520.555 322.249 519.578 320.796 518.343 319.562C517.109 318.302 515.656 317.312 513.984 316.592C512.339 315.846 510.577 315.46 508.7 315.435H502.605V351H494.697V315.435H474.947V351ZM598.234 321.375C598.234 323.304 597.874 325.104 597.154 326.775C596.434 328.447 595.443 329.913 594.183 331.173C592.949 332.407 591.483 333.384 589.786 334.104C588.114 334.825 586.327 335.185 584.424 335.185H554.143C554.709 336.342 555.416 337.409 556.265 338.386C557.114 339.363 558.065 340.199 559.119 340.894C560.174 341.588 561.318 342.128 562.552 342.514C563.813 342.899 565.124 343.092 566.487 343.092H592.332V351H566.487C563.504 350.974 560.701 350.396 558.078 349.264C555.455 348.107 553.166 346.551 551.212 344.597C549.283 342.617 547.753 340.315 546.621 337.692C545.49 335.069 544.924 332.266 544.924 329.283C544.924 326.3 545.49 323.497 546.621 320.874C547.753 318.25 549.283 315.962 551.212 314.007C553.166 312.027 555.455 310.471 558.078 309.34C560.701 308.183 563.504 307.591 566.487 307.565H584.424C586.327 307.565 588.114 307.925 589.786 308.646C591.483 309.366 592.949 310.356 594.183 311.616C595.443 312.85 596.434 314.303 597.154 315.975C597.874 317.646 598.234 319.446 598.234 321.375ZM584.424 327.315C585.221 327.315 585.98 327.161 586.7 326.853C587.42 326.544 588.05 326.12 588.59 325.58C589.13 325.04 589.554 324.41 589.863 323.689C590.172 322.969 590.326 322.198 590.326 321.375C590.326 320.578 590.172 319.819 589.863 319.099C589.554 318.379 589.13 317.749 588.59 317.209C588.05 316.669 587.42 316.245 586.7 315.936C585.98 315.602 585.221 315.435 584.424 315.435H566.487C564.738 315.435 563.093 315.743 561.55 316.36C560.032 316.978 558.669 317.826 557.461 318.906C556.278 319.961 555.288 321.221 554.49 322.687C553.719 324.127 553.218 325.67 552.986 327.315H584.424ZM655.867 315.435H626.242C625.419 315.435 624.647 315.602 623.927 315.936C623.207 316.245 622.577 316.669 622.037 317.209C621.497 317.749 621.073 318.379 620.764 319.099C620.456 319.819 620.301 320.578 620.301 321.375V351H612.393V321.375C612.393 319.446 612.754 317.646 613.474 315.975C614.194 314.303 615.184 312.85 616.444 311.616C617.704 310.356 619.17 309.366 620.841 308.646C622.513 307.925 624.313 307.565 626.242 307.565H655.867V315.435ZM713.075 351H687.231C684.248 350.974 681.444 350.396 678.821 349.264C676.198 348.107 673.91 346.551 671.955 344.597C670.026 342.617 668.496 340.315 667.365 337.692C666.233 335.069 665.668 332.266 665.668 329.283C665.668 326.3 666.233 323.497 667.365 320.874C668.496 318.225 670.026 315.923 671.955 313.969C673.91 311.989 676.198 310.433 678.821 309.301C681.444 308.144 684.248 307.565 687.231 307.565H713.075V315.435H687.231C685.328 315.46 683.54 315.846 681.869 316.592C680.223 317.312 678.783 318.302 677.548 319.562C676.314 320.796 675.337 322.249 674.617 323.921C673.922 325.592 673.575 327.38 673.575 329.283C673.575 331.186 673.922 332.973 674.617 334.645C675.337 336.316 676.314 337.782 677.548 339.042C678.783 340.276 680.223 341.266 681.869 342.012C683.54 342.732 685.328 343.092 687.231 343.092H713.075V351ZM738.306 297.69C738.306 298.513 738.152 299.285 737.843 300.005C737.534 300.699 737.11 301.316 736.57 301.856C736.03 302.396 735.4 302.821 734.68 303.129C733.96 303.438 733.201 303.592 732.404 303.592C731.581 303.592 730.81 303.438 730.09 303.129C729.37 302.821 728.74 302.396 728.199 301.856C727.659 301.316 727.235 300.699 726.927 300.005C726.618 299.285 726.464 298.513 726.464 297.69C726.464 296.893 726.618 296.135 726.927 295.415C727.235 294.694 727.659 294.064 728.199 293.524C728.74 292.984 729.37 292.56 730.09 292.251C730.81 291.917 731.581 291.75 732.404 291.75C733.201 291.75 733.96 291.917 734.68 292.251C735.4 292.56 736.03 292.984 736.57 293.524C737.11 294.064 737.534 294.694 737.843 295.415C738.152 296.135 738.306 296.893 738.306 297.69ZM736.339 351H728.431V307.565H736.339V351ZM803.924 351H764.424C762.495 351 760.695 350.64 759.023 349.92C757.352 349.2 755.886 348.223 754.626 346.988C753.366 345.728 752.376 344.262 751.656 342.591C750.936 340.894 750.576 339.093 750.576 337.19C750.576 335.262 750.936 333.462 751.656 331.79C752.376 330.118 753.366 328.653 754.626 327.393C755.886 326.132 757.352 325.142 759.023 324.422C760.695 323.702 762.495 323.342 764.424 323.342H792.043V331.25H764.424C763.601 331.25 762.829 331.417 762.109 331.751C761.389 332.06 760.759 332.484 760.219 333.024C759.679 333.564 759.255 334.194 758.946 334.915C758.638 335.635 758.483 336.393 758.483 337.19C758.483 338.013 758.638 338.785 758.946 339.505C759.255 340.199 759.679 340.816 760.219 341.356C760.759 341.896 761.389 342.321 762.109 342.629C762.829 342.938 763.601 343.092 764.424 343.092H796.016V321.375C796.016 320.578 795.849 319.819 795.515 319.099C795.206 318.379 794.782 317.749 794.242 317.209C793.702 316.669 793.072 316.245 792.352 315.936C791.631 315.602 790.873 315.435 790.076 315.435H758.483V307.565H790.076C792.004 307.565 793.804 307.925 795.476 308.646C797.148 309.366 798.613 310.356 799.873 311.616C801.134 312.85 802.124 314.303 802.844 315.975C803.564 317.646 803.924 319.446 803.924 321.375V351ZM837.216 351H835.249C833.32 351 831.52 350.64 829.849 349.92C828.177 349.2 826.711 348.223 825.451 346.988C824.191 345.728 823.201 344.262 822.481 342.591C821.761 340.894 821.401 339.093 821.401 337.19V291.75H829.309V337.19C829.309 338.013 829.463 338.785 829.772 339.505C830.08 340.199 830.504 340.816 831.044 341.356C831.585 341.896 832.215 342.321 832.935 342.629C833.655 342.938 834.426 343.092 835.249 343.092H837.216V351ZM945.616 351H910.012C906.18 351 902.696 350.28 899.558 348.84C896.421 347.4 893.734 345.432 891.496 342.938C889.285 340.444 887.575 337.512 886.366 334.143C885.157 330.774 884.553 327.174 884.553 323.342C884.553 319.536 885.157 315.962 886.366 312.619C887.575 309.25 889.285 306.318 891.496 303.824C893.734 301.304 896.421 299.323 899.558 297.883C902.696 296.417 906.18 295.685 910.012 295.685H945.616V303.592H910.012C907.286 303.592 904.83 304.119 902.644 305.174C900.484 306.202 898.646 307.617 897.128 309.417C895.637 311.191 894.48 313.274 893.657 315.666C892.859 318.058 892.461 320.616 892.461 323.342C892.461 326.068 892.859 328.64 893.657 331.057C894.48 333.449 895.637 335.545 897.128 337.345C898.646 339.119 900.484 340.521 902.644 341.549C904.83 342.578 907.286 343.092 910.012 343.092H945.616V351ZM976.479 351H974.511C972.583 351 970.782 350.64 969.111 349.92C967.439 349.2 965.974 348.223 964.713 346.988C963.453 345.728 962.463 344.262 961.743 342.591C961.023 340.894 960.663 339.093 960.663 337.19V291.75H968.571V337.19C968.571 338.013 968.725 338.785 969.034 339.505C969.342 340.199 969.767 340.816 970.307 341.356C970.847 341.896 971.477 342.321 972.197 342.629C972.917 342.938 973.688 343.092 974.511 343.092H976.479V351ZM1040.63 321.375C1040.63 323.304 1040.27 325.104 1039.55 326.775C1038.83 328.447 1037.84 329.913 1036.58 331.173C1035.35 332.407 1033.88 333.384 1032.18 334.104C1030.51 334.825 1028.72 335.185 1026.82 335.185H996.54C997.106 336.342 997.813 337.409 998.662 338.386C999.51 339.363 1000.46 340.199 1001.52 340.894C1002.57 341.588 1003.72 342.128 1004.95 342.514C1006.21 342.899 1007.52 343.092 1008.88 343.092H1034.73V351H1008.88C1005.9 350.974 1003.1 350.396 1000.47 349.264C997.852 348.107 995.563 346.551 993.609 344.597C991.68 342.617 990.15 340.315 989.018 337.692C987.887 335.069 987.321 332.266 987.321 329.283C987.321 326.3 987.887 323.497 989.018 320.874C990.15 318.25 991.68 315.962 993.609 314.007C995.563 312.027 997.852 310.471 1000.47 309.34C1003.1 308.183 1005.9 307.591 1008.88 307.565H1026.82C1028.72 307.565 1030.51 307.925 1032.18 308.646C1033.88 309.366 1035.35 310.356 1036.58 311.616C1037.84 312.85 1038.83 314.303 1039.55 315.975C1040.27 317.646 1040.63 319.446 1040.63 321.375ZM1026.82 327.315C1027.62 327.315 1028.38 327.161 1029.1 326.853C1029.82 326.544 1030.45 326.12 1030.99 325.58C1031.53 325.04 1031.95 324.41 1032.26 323.689C1032.57 322.969 1032.72 322.198 1032.72 321.375C1032.72 320.578 1032.57 319.819 1032.26 319.099C1031.95 318.379 1031.53 317.749 1030.99 317.209C1030.45 316.669 1029.82 316.245 1029.1 315.936C1028.38 315.602 1027.62 315.435 1026.82 315.435H1008.88C1007.14 315.435 1005.49 315.743 1003.95 316.36C1002.43 316.978 1001.07 317.826 999.858 318.906C998.675 319.961 997.685 321.221 996.887 322.687C996.116 324.127 995.615 325.67 995.383 327.315H1026.82ZM1104.44 351H1064.94C1063.01 351 1061.21 350.64 1059.54 349.92C1057.86 349.2 1056.4 348.223 1055.14 346.988C1053.88 345.728 1052.89 344.262 1052.17 342.591C1051.45 340.894 1051.09 339.093 1051.09 337.19C1051.09 335.262 1051.45 333.462 1052.17 331.79C1052.89 330.118 1053.88 328.653 1055.14 327.393C1056.4 326.132 1057.86 325.142 1059.54 324.422C1061.21 323.702 1063.01 323.342 1064.94 323.342H1092.55V331.25H1064.94C1064.11 331.25 1063.34 331.417 1062.62 331.751C1061.9 332.06 1061.27 332.484 1060.73 333.024C1060.19 333.564 1059.77 334.194 1059.46 334.915C1059.15 335.635 1058.99 336.393 1058.99 337.19C1058.99 338.013 1059.15 338.785 1059.46 339.505C1059.77 340.199 1060.19 340.816 1060.73 341.356C1061.27 341.896 1061.9 342.321 1062.62 342.629C1063.34 342.938 1064.11 343.092 1064.94 343.092H1096.53V321.375C1096.53 320.578 1096.36 319.819 1096.03 319.099C1095.72 318.379 1095.29 317.749 1094.75 317.209C1094.21 316.669 1093.58 316.245 1092.86 315.936C1092.14 315.602 1091.38 315.435 1090.59 315.435H1058.99V307.565H1090.59C1092.52 307.565 1094.32 307.925 1095.99 308.646C1097.66 309.366 1099.13 310.356 1100.39 311.616C1101.65 312.85 1102.64 314.303 1103.36 315.975C1104.08 317.646 1104.44 319.446 1104.44 321.375V351ZM1130.13 351H1122.22V307.565H1151.85C1154.83 307.565 1157.63 308.144 1160.26 309.301C1162.88 310.433 1165.17 311.989 1167.12 313.969C1169.08 315.923 1170.62 318.225 1171.75 320.874C1172.88 323.497 1173.45 326.3 1173.45 329.283V351H1165.54V329.283C1165.54 327.38 1165.18 325.592 1164.46 323.921C1163.74 322.249 1162.76 320.796 1161.53 319.562C1160.29 318.302 1158.84 317.312 1157.17 316.592C1155.52 315.846 1153.75 315.46 1151.85 315.435H1130.13V351ZM1200.68 297.69C1200.68 298.513 1200.53 299.285 1200.22 300.005C1199.91 300.699 1199.49 301.316 1198.95 301.856C1198.41 302.396 1197.78 302.821 1197.06 303.129C1196.34 303.438 1195.58 303.592 1194.78 303.592C1193.96 303.592 1193.19 303.438 1192.47 303.129C1191.75 302.821 1191.12 302.396 1190.58 301.856C1190.04 301.316 1189.61 300.699 1189.3 300.005C1189 299.285 1188.84 298.513 1188.84 297.69C1188.84 296.893 1189 296.135 1189.3 295.415C1189.61 294.694 1190.04 294.064 1190.58 293.524C1191.12 292.984 1191.75 292.56 1192.47 292.251C1193.19 291.917 1193.96 291.75 1194.78 291.75C1195.58 291.75 1196.34 291.917 1197.06 292.251C1197.78 292.56 1198.41 292.984 1198.95 293.524C1199.49 294.064 1199.91 294.694 1200.22 295.415C1200.53 296.135 1200.68 296.893 1200.68 297.69ZM1198.72 351H1190.81V307.565H1198.72V351ZM1224.72 351H1216.81V307.565H1246.44C1249.42 307.565 1252.22 308.144 1254.85 309.301C1257.47 310.433 1259.76 311.989 1261.71 313.969C1263.67 315.923 1265.21 318.225 1266.34 320.874C1267.47 323.497 1268.04 326.3 1268.04 329.283V351H1260.13V329.283C1260.13 327.38 1259.77 325.592 1259.05 323.921C1258.33 322.249 1257.35 320.796 1256.12 319.562C1254.88 318.302 1253.43 317.312 1251.76 316.592C1250.11 315.846 1248.34 315.46 1246.44 315.435H1224.72V351ZM1333.85 352.967C1333.85 354.896 1333.48 356.696 1332.73 358.368C1332.01 360.039 1331.02 361.505 1329.76 362.765C1328.53 364.025 1327.06 365.015 1325.36 365.735C1323.69 366.455 1321.9 366.815 1320 366.815H1288.41V358.908H1320C1320.8 358.908 1321.56 358.753 1322.28 358.445C1323 358.136 1323.63 357.712 1324.17 357.172C1324.71 356.632 1325.13 356.002 1325.44 355.282C1325.77 354.562 1325.94 353.79 1325.94 352.967V315.435H1304.22C1302.32 315.46 1300.53 315.846 1298.86 316.592C1297.22 317.312 1295.78 318.302 1294.54 319.562C1293.31 320.796 1292.33 322.249 1291.61 323.921C1290.92 325.592 1290.57 327.38 1290.57 329.283C1290.57 331.186 1290.92 332.973 1291.61 334.645C1292.33 336.29 1293.31 337.743 1294.54 339.003C1295.78 340.238 1297.22 341.228 1298.86 341.974C1300.53 342.694 1302.32 343.067 1304.22 343.092H1322.01V351H1304.22C1301.24 350.974 1298.44 350.396 1295.81 349.264C1293.19 348.107 1290.9 346.551 1288.95 344.597C1287.02 342.617 1285.49 340.315 1284.36 337.692C1283.23 335.069 1282.66 332.266 1282.66 329.283C1282.66 326.3 1283.23 323.497 1284.36 320.874C1285.49 318.25 1287.02 315.962 1288.95 314.007C1290.9 312.027 1293.19 310.471 1295.81 309.34C1298.44 308.183 1301.24 307.591 1304.22 307.565H1333.85V352.967Z" fill="#F7F9FA"/>
<path d="M834 65C834 65 1063.5 -70 1326 65" stroke="#FFC700" stroke-width="10" stroke-linecap="round"/>
</svg>
