<svg width="1117" height="309" viewBox="0 0 1117 309" fill="none" xmlns="http://www.w3.org/2000/svg">
<mask id="mask0_1213_32" style="mask-type:luminance" maskUnits="userSpaceOnUse" x="0" y="0" width="1117" height="309">
<path d="M1116.62 0H0V308.438H1116.62V0Z" fill="white"/>
</mask>
<g mask="url(#mask0_1213_32)">
<path d="M85.5173 117.379C85.5173 120.843 85.0655 124.168 84.1632 127.356C83.2951 130.507 82.0452 133.469 80.4133 136.24C78.8161 138.977 76.8892 141.489 74.6323 143.775C72.3755 146.026 69.8581 147.966 67.0805 149.595C64.3376 151.187 61.3688 152.435 58.1746 153.336C54.9803 154.201 51.6644 154.634 48.227 154.634H3.95801V143.983H48.227C51.9075 143.983 55.3621 143.289 58.5913 141.904C61.8202 140.519 64.6326 138.631 67.0284 136.24C69.4588 133.815 71.3685 130.992 72.7573 127.771C74.1809 124.515 74.8927 121.05 74.8927 117.379V90.7752H3.95801V80.123H85.5173V117.379ZM170.381 154.634H159.703V138.579H118.612V127.719H159.703V106.623H131.945C129.34 106.623 126.892 107.125 124.601 108.129C122.309 109.099 120.313 110.433 118.612 112.131C116.91 113.828 115.556 115.819 114.549 118.106C113.577 120.358 113.091 122.783 113.091 125.38V154.634H102.31V125.38C102.31 121.293 103.091 117.466 104.654 113.897C106.216 110.329 108.335 107.211 111.008 104.544C113.681 101.877 116.824 99.7814 120.434 98.2575C124.046 96.6979 127.882 95.919 131.945 95.919H170.381V154.634ZM242.848 154.634C242.848 150.754 242.189 146.996 240.869 143.359C239.585 139.687 237.831 136.24 235.609 133.019C233.421 129.762 230.87 126.732 227.952 123.925C225.071 121.12 222.033 118.626 218.838 116.443C215.644 114.226 212.381 112.373 209.048 110.884C205.749 109.36 202.606 108.234 199.621 107.506V154.634H188.943V96.1268H194.726V96.2307C198.544 96.4385 202.606 97.2874 206.913 98.7764C211.252 100.231 215.559 102.223 219.829 104.752C224.134 107.246 228.266 110.225 232.225 113.689C236.217 117.119 239.759 120.912 242.848 125.069V96.1268H253.473V154.634H242.848ZM282.609 154.634H272.036V96.1268H282.609V154.634ZM333.619 154.634H322.943V106.623H294.715V96.1268H361.796V106.623H333.619V154.634ZM442.493 125.277C442.493 129.329 441.85 133.14 440.566 136.708C439.281 140.242 437.441 143.342 435.045 146.009C432.684 148.676 429.838 150.789 426.504 152.348C423.205 153.872 419.525 154.634 415.463 154.634H396.922C392.858 154.634 389.162 153.872 385.828 152.348C382.495 150.789 379.631 148.676 377.235 146.009C374.874 143.342 373.051 140.242 371.766 136.708C370.482 133.14 369.84 129.329 369.84 125.277C369.84 121.258 370.482 117.482 371.766 113.949C373.051 110.416 374.874 107.333 377.235 104.701C379.631 102.033 382.495 99.9369 385.828 98.413C389.162 96.8892 392.858 96.1268 396.922 96.1268H415.463C419.525 96.1268 423.205 96.8892 426.504 98.413C429.838 99.9369 432.684 102.033 435.045 104.701C437.441 107.333 439.281 110.416 440.566 113.949C441.85 117.482 442.493 121.258 442.493 125.277ZM431.817 125.277C431.817 122.713 431.433 120.305 430.671 118.054C429.941 115.768 428.864 113.793 427.441 112.131C426.052 110.433 424.351 109.099 422.337 108.129C420.324 107.125 418.032 106.623 415.463 106.623H396.922C394.353 106.623 392.043 107.125 389.995 108.129C387.981 109.099 386.262 110.433 384.839 112.131C383.45 113.793 382.373 115.768 381.61 118.054C380.88 120.305 380.516 122.713 380.516 125.277C380.516 127.84 380.88 130.265 381.61 132.551C382.373 134.803 383.45 136.777 384.839 138.474C386.262 140.172 387.981 141.523 389.995 142.528C392.043 143.497 394.353 143.983 396.922 143.983H415.463C418.032 143.983 420.324 143.497 422.337 142.528C424.351 141.523 426.052 140.172 427.441 138.474C428.864 136.777 429.941 134.803 430.671 132.551C431.433 130.265 431.817 127.84 431.817 125.277ZM526.522 154.634H511.992L495.326 138.787H473.711V128.238H503.242C504.735 128.238 506.142 127.944 507.46 127.356C508.78 126.766 509.926 125.987 510.897 125.017C511.87 124.013 512.635 122.852 513.188 121.536C513.746 120.219 514.022 118.834 514.022 117.379C514.022 115.889 513.746 114.503 513.188 113.222C512.635 111.905 511.87 110.762 510.897 109.792C509.926 108.823 508.78 108.06 507.46 107.506C506.142 106.917 504.735 106.623 503.242 106.623H468.139V154.634H457.463V96.1268H503.242C506.195 96.1268 508.971 96.6979 511.574 97.8419C514.18 98.9501 516.437 100.474 518.347 102.414C520.289 104.319 521.818 106.571 522.929 109.168C524.04 111.732 524.596 114.469 524.596 117.379C524.596 119.768 524.213 122.072 523.45 124.289C522.686 126.472 521.609 128.481 520.22 130.317C518.866 132.118 517.252 133.677 515.376 134.993C513.502 136.309 511.453 137.279 509.23 137.903L526.522 154.634ZM604.771 137.383C604.771 139.774 604.319 142.025 603.417 144.138C602.514 146.217 601.282 148.035 599.72 149.595C598.191 151.153 596.369 152.383 594.252 153.283C592.167 154.184 589.928 154.634 587.534 154.634H537.691V143.983H587.534C588.47 143.983 589.338 143.826 590.137 143.515C590.971 143.168 591.682 142.701 592.272 142.112C592.897 141.489 593.384 140.778 593.73 139.982C594.077 139.185 594.252 138.319 594.252 137.383C594.252 136.448 594.077 135.582 593.73 134.785C593.384 133.954 592.897 133.244 592.272 132.655C591.682 132.031 590.971 131.546 590.137 131.2C589.338 130.854 588.47 130.681 587.534 130.681H554.877C552.517 130.681 550.295 130.23 548.21 129.329C546.128 128.429 544.305 127.199 542.743 125.64C541.18 124.047 539.947 122.194 539.045 120.081C538.143 117.968 537.691 115.716 537.691 113.325C537.691 111.005 538.143 108.805 539.045 106.727C539.947 104.613 541.18 102.778 542.743 101.219C544.305 99.66 546.128 98.4304 548.21 97.5293C550.295 96.5949 552.517 96.1268 554.877 96.1268H600.866V106.623H554.877C553.975 106.623 553.107 106.813 552.274 107.195C551.475 107.541 550.779 108.026 550.189 108.65C549.601 109.238 549.131 109.948 548.784 110.78C548.437 111.576 548.263 112.425 548.263 113.325C548.263 114.261 548.437 115.144 548.784 115.976C549.131 116.772 549.601 117.482 550.189 118.106C550.779 118.695 551.475 119.162 552.274 119.509C553.107 119.856 553.975 120.029 554.877 120.029H587.534C589.928 120.029 592.167 120.497 594.252 121.431C596.369 122.332 598.191 123.579 599.72 125.172C601.282 126.732 602.514 128.568 603.417 130.681C604.319 132.793 604.771 135.028 604.771 137.383Z" fill="#FFC700"/>
<path d="M774.449 117.379C774.449 122.54 773.616 127.39 771.949 131.928C770.317 136.466 767.991 140.415 764.97 143.775C761.948 147.135 758.321 149.785 754.085 151.724C749.883 153.664 745.213 154.634 740.075 154.634H702.421V143.983H740.075C743.756 143.983 747.053 143.289 749.97 141.904C752.921 140.519 755.405 138.631 757.418 136.24C759.466 133.815 761.028 130.992 762.104 127.771C763.216 124.515 763.771 121.05 763.771 117.379C763.771 113.707 763.216 110.26 762.104 107.039C761.028 103.817 759.466 101.011 757.418 98.6209C755.405 96.1957 752.921 94.2912 749.97 92.9052C747.053 91.4853 743.756 90.7752 740.075 90.7752H697.108V154.634H686.43V80.123H740.075C745.213 80.123 749.883 81.1102 754.085 83.0848C758.321 85.0247 761.948 87.6917 764.97 91.0862C767.991 94.4465 770.317 98.3956 771.949 102.933C773.616 107.437 774.449 112.252 774.449 117.379ZM800.563 154.634H789.991V96.1268H800.563V154.634ZM888.19 154.634H873.656L856.99 138.787H835.375V128.238H864.906C866.399 128.238 867.808 127.944 869.124 127.356C870.448 126.766 871.59 125.987 872.565 125.017C873.532 124.013 874.299 122.852 874.856 121.536C875.406 120.219 875.689 118.834 875.689 117.379C875.689 115.889 875.406 114.503 874.856 113.222C874.299 111.905 873.532 110.762 872.565 109.792C871.59 108.823 870.448 108.06 869.124 107.506C867.808 106.917 866.399 106.623 864.906 106.623H829.804V154.634H819.127V96.1268H864.906C867.857 96.1268 870.631 96.6979 873.24 97.8419C875.84 98.9501 878.099 100.474 880.007 102.414C881.957 104.319 883.482 106.571 884.59 109.168C885.706 111.732 886.256 114.469 886.256 117.379C886.256 119.768 885.881 122.072 885.114 124.289C884.348 126.472 883.273 128.481 881.881 130.317C880.532 132.118 878.914 133.677 877.04 134.993C875.165 136.309 873.115 137.279 870.898 137.903L888.19 154.634ZM963.361 154.634H902.114V95.919H963.361V106.623H912.897V143.878H963.361V154.634ZM956.536 130.368H917.947V119.613H956.536V130.368ZM1039.68 154.634H1001.82C997.694 154.634 993.944 153.872 990.569 152.348C987.203 150.824 984.319 148.746 981.926 146.113C979.528 143.446 977.678 140.328 976.352 136.76C975.069 133.158 974.428 129.295 974.428 125.172C974.428 121.085 975.069 117.274 976.352 113.741C977.678 110.174 979.528 107.073 981.926 104.44C984.319 101.807 987.203 99.7291 990.569 98.2053C993.944 96.6812 997.694 95.919 1001.82 95.919H1039.68V106.623H1001.82C999.251 106.623 996.927 107.108 994.843 108.078C992.793 109.048 991.061 110.364 989.636 112.027C988.21 113.689 987.119 115.647 986.353 117.898C985.594 120.15 985.211 122.575 985.211 125.172C985.211 127.805 985.594 130.265 986.353 132.551C987.119 134.803 988.21 136.777 989.636 138.474C991.061 140.137 992.793 141.454 994.843 142.423C996.927 143.393 999.251 143.878 1001.82 143.878H1039.68V154.634ZM1087.21 154.634H1076.53V106.623H1048.3V96.1268H1115.38V106.623H1087.21V154.634Z" fill="#EAEAEA"/>
<path d="M1112.46 204.516H4.1665" stroke="#999999" stroke-width="2" stroke-linecap="round"/>
<path d="M694.972 54.0389C694.972 54.0389 886.214 -58.1959 1104.96 54.0389" stroke="#FFC700" stroke-width="7" stroke-linecap="round"/>
<path d="M41.4762 296.297L36.2562 291.363C36.0293 291.402 35.7833 291.42 35.5185 291.42C35.2727 291.42 35.0363 291.42 34.8093 291.42H21.2772C18.4591 291.42 15.8963 290.89 13.589 289.832C11.2816 288.774 9.30515 287.328 7.65973 285.494C6.03322 283.662 4.7755 281.506 3.88658 279.031C2.99767 276.555 2.55322 273.909 2.55322 271.094C2.55322 268.296 2.99767 265.669 3.88658 263.212C4.7755 260.737 6.03322 258.582 7.65973 256.749C9.30515 254.897 11.2816 253.442 13.589 252.382C15.8963 251.306 18.4591 250.768 21.2772 250.768H34.8093C37.6083 250.768 40.1522 251.306 42.4407 252.382C44.7291 253.442 46.6866 254.897 48.3132 256.749C49.9585 258.582 51.2257 260.737 52.1146 263.212C53.0036 265.669 53.448 268.296 53.448 271.094C53.448 273.191 53.1928 275.203 52.682 277.132C52.1903 279.04 51.4717 280.808 50.5259 282.433C49.5803 284.039 48.4267 285.476 47.065 286.742C45.7221 287.989 44.2091 289.01 42.5258 289.803L49.3345 296.297H41.4762ZM47.6323 271.094C47.6323 269.091 47.3391 267.209 46.7528 265.453C46.1666 263.695 45.3154 262.163 44.1997 260.859C43.1027 259.536 41.7598 258.497 40.1711 257.742C38.6013 256.965 36.814 256.579 34.8093 256.579H21.2772C19.2723 256.579 17.4661 256.965 15.8585 257.742C14.2698 258.497 12.9175 259.536 11.8017 260.859C10.7047 262.163 9.85362 263.695 9.24842 265.453C8.66211 267.209 8.36897 269.091 8.36897 271.094C8.36897 273.097 8.66211 274.987 9.24842 276.763C9.85362 278.522 10.7047 280.062 11.8017 281.385C12.9175 282.689 14.2698 283.718 15.8585 284.474C17.4661 285.231 19.2723 285.608 21.2772 285.608H30.2134L24.6815 280.336H32.8234L37.8732 285.267C39.4051 284.908 40.7763 284.295 41.9868 283.426C43.1973 282.537 44.2186 281.47 45.0507 280.222C45.9017 278.975 46.5448 277.576 46.9798 276.027C47.4148 274.476 47.6323 272.832 47.6323 271.094ZM97.6022 259.498V275.459C97.6022 277.671 97.1862 279.75 96.3539 281.697C95.5218 283.623 94.3776 285.314 92.9213 286.771C91.484 288.206 89.8007 289.34 87.8716 290.171C85.9425 291.004 83.881 291.42 81.687 291.42H78.4812C76.2874 291.42 74.2257 291.004 72.2966 290.171C70.3675 289.322 68.6749 288.179 67.2186 286.742C65.7812 285.287 64.6464 283.596 63.8143 281.668C62.982 279.721 62.566 277.651 62.566 275.459V259.498H68.3817V275.459C68.3817 276.858 68.6464 278.18 69.1761 279.429C69.7057 280.657 70.4243 281.733 71.3321 282.66C72.2588 283.567 73.3275 284.286 74.5379 284.814C75.7672 285.343 77.0817 285.608 78.4812 285.608H81.687C83.0866 285.608 84.401 285.343 85.6304 284.814C86.8597 284.286 87.9282 283.567 88.8361 282.66C89.7439 281.733 90.4627 280.657 90.9921 279.429C91.5218 278.18 91.7865 276.858 91.7865 275.459V259.498H97.6022ZM144.934 291.42H139.118V282.66H116.735V276.734H139.118V265.224H123.997C122.579 265.224 121.245 265.5 119.997 266.048C118.749 266.576 117.661 267.303 116.735 268.231C115.808 269.156 115.07 270.243 114.522 271.491C113.992 272.719 113.727 274.042 113.727 275.459V291.42H107.855V275.459C107.855 273.229 108.281 271.141 109.132 269.194C109.983 267.247 111.136 265.547 112.593 264.092C114.049 262.635 115.761 261.492 117.728 260.661C119.695 259.81 121.784 259.386 123.997 259.386H144.934V291.42ZM186.79 291.42H156.208V259.498H162.024V285.608H186.79V291.42ZM200.391 291.42H194.632V259.498H200.391V291.42ZM229.338 291.42H223.522V265.224H208.147V259.498H244.687V265.224H229.338V291.42ZM287.876 282.007C287.876 283.311 287.564 284.54 286.941 285.694C286.335 286.828 285.503 287.82 284.444 288.669C283.404 289.52 282.175 290.191 280.755 290.683C279.337 291.175 277.834 291.42 276.245 291.42H251.251V285.608H276.245C277.038 285.608 277.786 285.523 278.485 285.353C279.204 285.164 279.829 284.908 280.359 284.587C280.888 284.248 281.303 283.859 281.607 283.426C281.91 282.99 282.061 282.519 282.061 282.007V280.563H262.826C261.237 280.563 259.734 280.26 258.316 279.655C256.916 279.031 255.686 278.2 254.628 277.161C253.588 276.101 252.765 274.873 252.159 273.474C251.554 272.057 251.251 270.546 251.251 268.938V259.498H257.01V268.938C257.01 269.751 257.161 270.517 257.464 271.235C257.767 271.934 258.183 272.549 258.713 273.079C259.241 273.588 259.857 273.995 260.556 274.296C261.275 274.599 262.032 274.75 262.826 274.75H282.061V259.498H287.876V282.007ZM366.822 291.42H340.639C337.819 291.42 335.257 290.89 332.949 289.832C330.642 288.774 328.666 287.328 327.021 285.494C325.395 283.662 324.136 281.506 323.247 279.031C322.359 276.555 321.914 273.909 321.914 271.094C321.914 268.296 322.359 265.669 323.247 263.212C324.136 260.737 325.395 258.582 327.021 256.749C328.666 254.897 330.642 253.442 332.949 252.382C335.257 251.306 337.819 250.768 340.639 250.768H366.822V256.579H340.639C338.632 256.579 336.828 256.965 335.219 257.742C333.63 258.497 332.278 259.536 331.163 260.859C330.066 262.163 329.215 263.695 328.61 265.453C328.024 267.209 327.729 269.091 327.729 271.094C327.729 273.097 328.024 274.987 328.61 276.763C329.215 278.522 330.066 280.062 331.163 281.385C332.278 282.689 333.63 283.718 335.219 284.474C336.828 285.231 338.632 285.608 340.639 285.608H366.822V291.42ZM413.473 275.403C413.473 277.614 413.123 279.692 412.424 281.639C411.725 283.567 410.721 285.258 409.417 286.713C408.13 288.168 406.579 289.322 404.764 290.171C402.968 291.004 400.962 291.42 398.75 291.42H388.65C386.437 291.42 384.423 291.004 382.607 290.171C380.792 289.322 379.232 288.168 377.927 286.713C376.641 285.258 375.648 283.567 374.947 281.639C374.248 279.692 373.898 277.614 373.898 275.403C373.898 273.211 374.248 271.15 374.947 269.223C375.648 267.294 376.641 265.612 377.927 264.176C379.232 262.72 380.792 261.577 382.607 260.746C384.423 259.914 386.437 259.498 388.65 259.498H398.75C400.962 259.498 402.968 259.914 404.764 260.746C406.579 261.577 408.13 262.72 409.417 264.176C410.721 265.612 411.725 267.294 412.424 269.223C413.123 271.15 413.473 273.211 413.473 275.403ZM407.658 275.403C407.658 274.004 407.449 272.69 407.033 271.462C406.636 270.214 406.051 269.138 405.274 268.231C404.519 267.303 403.591 266.576 402.494 266.048C401.397 265.5 400.15 265.224 398.75 265.224H388.65C387.25 265.224 385.994 265.5 384.877 266.048C383.78 266.576 382.843 267.303 382.068 268.231C381.313 269.138 380.726 270.214 380.309 271.462C379.913 272.69 379.713 274.004 379.713 275.403C379.713 276.802 379.913 278.124 380.309 279.371C380.726 280.599 381.313 281.677 382.068 282.604C382.843 283.529 383.78 284.266 384.877 284.814C385.994 285.343 387.25 285.608 388.65 285.608H398.75C400.15 285.608 401.397 285.343 402.494 284.814C403.591 284.266 404.519 283.529 405.274 282.604C406.051 281.677 406.636 280.599 407.033 279.371C407.449 278.124 407.658 276.802 407.658 275.403ZM446.224 291.42H440.407V275.346C440.407 273.948 440.143 272.634 439.613 271.406C439.083 270.177 438.355 269.109 437.429 268.202C436.521 267.276 435.443 266.549 434.195 266.019C432.966 265.489 431.652 265.224 430.252 265.224H428.605V291.42H422.789V259.498H430.252C431.613 259.498 432.928 259.669 434.195 260.01C435.463 260.331 436.654 260.794 437.768 261.398C438.903 261.984 439.944 262.702 440.89 263.553C441.854 264.402 442.696 265.348 443.415 266.387C444.152 265.348 444.984 264.402 445.912 263.553C446.858 262.702 447.878 261.984 448.975 261.398C450.071 260.794 451.235 260.331 452.464 260.01C453.693 259.669 454.981 259.498 456.323 259.498H463.756V291.42H457.94V265.224H456.323C454.923 265.224 453.608 265.509 452.379 266.075C451.17 266.643 450.1 267.418 449.174 268.399C448.267 269.383 447.548 270.537 447.017 271.859C446.487 273.182 446.224 274.59 446.224 276.083V291.42ZM498.491 291.42H492.675V275.346C492.675 273.948 492.41 272.634 491.882 271.406C491.352 270.177 490.624 269.109 489.696 268.202C488.788 267.276 487.711 266.549 486.462 266.019C485.233 265.489 483.919 265.224 482.519 265.224H480.874V291.42H475.058V259.498H482.519C483.88 259.498 485.195 259.669 486.462 260.01C487.73 260.331 488.921 260.794 490.037 261.398C491.172 261.984 492.212 262.702 493.158 263.553C494.122 264.402 494.963 265.348 495.682 266.387C496.421 265.348 497.253 264.402 498.179 263.553C499.125 262.702 500.147 261.984 501.243 261.398C502.34 260.794 503.504 260.331 504.733 260.01C505.962 259.669 507.248 259.498 508.591 259.498H516.023V291.42H510.207V265.224H508.591C507.191 265.224 505.877 265.509 504.648 266.075C503.437 266.643 502.369 267.418 501.441 268.399C500.534 269.383 499.815 270.537 499.286 271.859C498.756 273.182 498.491 274.59 498.491 276.083V291.42ZM560.688 291.42H527.325V259.386H560.688V265.224H533.199V285.552H560.688V291.42ZM556.973 278.18H535.949V272.313H556.973V278.18ZM607.68 291.42H599.764L590.686 282.773H578.913V277.017H594.998C595.811 277.017 596.578 276.858 597.296 276.537C598.015 276.215 598.638 275.789 599.168 275.261C599.699 274.713 600.114 274.08 600.418 273.362C600.719 272.643 600.872 271.886 600.872 271.094C600.872 270.281 600.719 269.524 600.418 268.826C600.114 268.107 599.699 267.483 599.168 266.955C598.638 266.425 598.015 266.01 597.296 265.707C596.578 265.386 595.811 265.224 594.998 265.224H575.877V291.42H570.062V259.498H594.998C596.607 259.498 598.119 259.81 599.537 260.434C600.955 261.039 602.186 261.871 603.225 262.929C604.285 263.969 605.117 265.197 605.721 266.614C606.328 268.013 606.629 269.506 606.629 271.094C606.629 272.398 606.422 273.654 606.006 274.864C605.59 276.054 605.004 277.15 604.247 278.153C603.51 279.135 602.629 279.986 601.609 280.704C600.586 281.423 599.472 281.951 598.261 282.292L607.68 291.42ZM650.076 291.42H629.45C627.2 291.42 625.158 291.004 623.322 290.171C621.488 289.34 619.918 288.206 618.612 286.771C617.309 285.314 616.295 283.614 615.578 281.668C614.877 279.703 614.527 277.594 614.527 275.346C614.527 273.115 614.877 271.037 615.578 269.109C616.295 267.162 617.309 265.471 618.612 264.034C619.918 262.599 621.488 261.465 623.322 260.632C625.158 259.801 627.2 259.386 629.45 259.386H650.076V265.224H629.45C628.05 265.224 626.783 265.489 625.648 266.019C624.533 266.549 623.587 267.267 622.812 268.174C622.037 269.082 621.441 270.148 621.025 271.377C620.608 272.605 620.401 273.928 620.401 275.346C620.401 276.782 620.608 278.124 621.025 279.371C621.441 280.599 622.037 281.677 622.812 282.604C623.587 283.511 624.533 284.228 625.648 284.757C626.783 285.287 628.05 285.552 629.45 285.552H650.076V291.42ZM665.207 291.42H659.448V259.498H665.207V291.42ZM713.049 291.42H707.234V282.66H684.851V276.734H707.234V265.224H692.113C690.695 265.224 689.361 265.5 688.113 266.048C686.864 266.576 685.777 267.303 684.851 268.231C683.923 269.156 683.186 270.243 682.637 271.491C682.107 272.719 681.844 274.042 681.844 275.459V291.42H675.97V275.459C675.97 273.229 676.397 271.141 677.247 269.194C678.098 267.247 679.251 265.547 680.709 264.092C682.165 262.635 683.876 261.492 685.844 260.661C687.81 259.81 689.9 259.386 692.113 259.386H713.049V291.42ZM754.905 291.42H724.323V259.498H730.14V285.608H754.905V291.42ZM829.993 291.42H803.808C800.99 291.42 798.428 290.89 796.121 289.832C793.813 288.774 791.838 287.328 790.191 285.494C788.566 283.662 787.307 281.506 786.418 279.031C785.53 276.555 785.085 273.909 785.085 271.094C785.085 268.296 785.53 265.669 786.418 263.212C787.307 260.737 788.566 258.582 790.191 256.749C791.838 254.897 793.813 253.442 796.121 252.382C798.428 251.306 800.99 250.768 803.808 250.768H829.993V256.579H803.808C801.804 256.579 799.999 256.965 798.39 257.742C796.801 258.497 795.449 259.536 794.334 260.859C793.237 262.163 792.386 263.695 791.779 265.453C791.195 267.209 790.901 269.091 790.901 271.094C790.901 273.097 791.195 274.987 791.779 276.763C792.386 278.522 793.237 280.062 794.334 281.385C795.449 282.689 796.801 283.718 798.39 284.474C799.999 285.231 801.804 285.608 803.808 285.608H829.993V291.42ZM869.836 291.42H839.253V259.498H845.07V285.608H869.836V291.42ZM911.04 291.42H877.678V259.386H911.04V265.224H883.549V285.552H911.04V291.42ZM907.323 278.18H886.302V272.313H907.323V278.18ZM956.981 291.42H951.166V282.66H928.783V276.734H951.166V265.224H936.045C934.627 265.224 933.293 265.5 932.045 266.048C930.796 266.576 929.709 267.303 928.783 268.231C927.855 269.156 927.118 270.243 926.569 271.491C926.039 272.719 925.776 274.042 925.776 275.459V291.42H919.902V275.459C919.902 273.229 920.329 271.141 921.179 269.194C922.03 267.247 923.183 265.547 924.641 264.092C926.097 262.635 927.808 261.492 929.776 260.661C931.742 259.81 933.832 259.386 936.045 259.386H956.981V291.42ZM997.617 291.42C997.617 289.302 997.258 287.252 996.539 285.267C995.84 283.264 994.885 281.385 993.674 279.626C992.483 277.85 991.092 276.196 989.503 274.666C987.934 273.135 986.279 271.774 984.539 270.584C982.8 269.374 981.022 268.363 979.207 267.55C977.409 266.717 975.697 266.104 974.07 265.707V291.42H968.255V259.498H971.405V259.556C973.486 259.669 975.697 260.131 978.043 260.944C980.407 261.739 982.753 262.826 985.078 264.205C987.424 265.565 989.674 267.191 991.831 269.082C994.006 270.952 995.934 273.02 997.617 275.288V259.498H1003.41V291.42H997.617ZM1020.44 291.42H1014.68V259.498H1020.44V291.42ZM1061.07 291.42C1061.07 289.302 1060.71 287.252 1060 285.267C1059.3 283.264 1058.34 281.385 1057.13 279.626C1055.94 277.85 1054.55 276.196 1052.96 274.666C1051.39 273.135 1049.74 271.774 1048 270.584C1046.26 269.374 1044.48 268.363 1042.66 267.55C1040.87 266.717 1039.15 266.104 1037.53 265.707V291.42H1031.71V259.498H1034.86V259.556C1036.94 259.669 1039.15 260.131 1041.5 260.944C1043.86 261.739 1046.21 262.826 1048.54 264.205C1050.88 265.565 1053.13 267.191 1055.29 269.082C1057.46 270.952 1059.39 273.02 1061.07 275.288V259.498H1066.86V291.42H1061.07ZM1111.78 291.42H1091.16C1088.91 291.42 1086.86 291.004 1085.03 290.171C1083.2 289.34 1081.63 288.206 1080.32 286.771C1079.01 285.314 1078 283.614 1077.28 281.668C1076.59 279.703 1076.23 277.594 1076.23 275.346C1076.23 273.115 1076.59 271.037 1077.28 269.109C1078 267.162 1079.01 265.471 1080.32 264.034C1081.63 262.599 1083.2 261.465 1085.03 260.632C1086.86 259.801 1088.91 259.386 1091.16 259.386H1111.78V265.224H1091.16C1089.76 265.224 1088.49 265.489 1087.36 266.019C1086.24 266.549 1085.29 267.267 1084.52 268.174C1083.74 269.082 1083.15 270.148 1082.73 271.377C1082.32 272.605 1082.11 273.928 1082.11 275.346C1082.11 276.782 1082.32 278.124 1082.73 279.371C1083.15 280.599 1083.74 281.677 1084.52 282.604C1085.29 283.511 1086.24 284.228 1087.36 284.757C1088.49 285.287 1089.76 285.552 1091.16 285.552H1105.91V278.18H1089.26V272.313H1111.78V291.42Z" fill="#9B9B9B"/>
</g>
</svg>
