<svg width="240" height="29" viewBox="0 0 240 29" fill="none" xmlns="http://www.w3.org/2000/svg">
<g clip-path="url(#clip0_200_481)">
<path d="M18.491 13.9902C18.491 14.7455 18.3933 15.4705 18.1982 16.1652C18.0105 16.8525 17.7402 17.4982 17.3874 18.1024C17.042 18.699 16.6254 19.2466 16.1374 19.745C15.6494 20.2359 15.1051 20.6587 14.5045 21.0138C13.9114 21.3611 13.2695 21.6329 12.5788 21.8294C11.8881 22.0181 11.1712 22.1125 10.4279 22.1125H0.85585V19.7903H10.4279C11.2237 19.7903 11.9707 19.6392 12.6689 19.3372C13.3671 19.0351 13.9752 18.6235 14.4932 18.1024C15.0188 17.5737 15.4317 16.9582 15.732 16.2559C16.0398 15.546 16.1937 14.7908 16.1937 13.9902V8.19025H0.85585V5.86798H18.491V13.9902ZM36.8405 22.1125H34.5319V18.6122H25.6468V16.2445H34.5319V11.6453H28.5297C27.9667 11.6453 27.4373 11.7548 26.9418 11.9738C26.4463 12.1853 26.0148 12.476 25.6468 12.8461C25.2789 13.2162 24.9861 13.6504 24.7685 14.1488C24.5582 14.6397 24.4531 15.1684 24.4531 15.7348V22.1125H22.122V15.7348C22.122 14.8436 22.291 14.0091 22.6288 13.2313C22.9667 12.4534 23.4247 11.7737 24.0027 11.1922C24.5807 10.6107 25.2602 10.1538 26.0409 9.8215C26.8218 9.48165 27.6513 9.31173 28.5297 9.31173H36.8405V22.1125ZM52.5099 22.1125C52.5099 21.2666 52.3672 20.4472 52.082 19.6544C51.8041 18.8538 51.425 18.1024 50.9445 17.4C50.4715 16.6901 49.9198 16.0293 49.2892 15.4176C48.6661 14.8059 48.0092 14.2621 47.3184 13.7863C46.6277 13.303 45.922 12.899 45.2013 12.5742C44.4881 12.2419 43.8086 11.9965 43.1631 11.8379V22.1125H40.8544V9.35704H42.1045V9.3797C42.9303 9.42501 43.8086 9.61003 44.7396 9.93478C45.678 10.252 46.609 10.6862 47.5324 11.2375C48.4634 11.7813 49.3568 12.4307 50.2126 13.1859C51.076 13.9336 51.8418 14.7606 52.5099 15.6668V9.35704H54.8072V22.1125H52.5099ZM61.1072 22.1125H58.8211V9.35704H61.1072V22.1125ZM72.1369 22.1125H69.8283V11.6453H63.7247V9.35704H78.2292V11.6453H72.1369V22.1125ZM95.678 15.7121C95.678 16.5957 95.5391 17.4264 95.2613 18.2044C94.9834 18.9747 94.5856 19.6506 94.0676 20.232C93.5571 20.8135 92.9414 21.2742 92.2207 21.6141C91.5076 21.9463 90.7117 22.1125 89.8333 22.1125H85.8243C84.9459 22.1125 84.1465 21.9463 83.4258 21.6141C82.705 21.2742 82.0856 20.8135 81.5676 20.232C81.0571 19.6506 80.6629 18.9747 80.3852 18.2044C80.1074 17.4264 79.9685 16.5957 79.9685 15.7121C79.9685 14.8361 80.1074 14.0129 80.3852 13.2426C80.6629 12.4723 81.0571 11.8001 81.5676 11.2262C82.0856 10.6447 82.705 10.1878 83.4258 9.85548C84.1465 9.5232 84.9459 9.35704 85.8243 9.35704H89.8333C90.7117 9.35704 91.5076 9.5232 92.2207 9.85548C92.9414 10.1878 93.5571 10.6447 94.0676 11.2262C94.5856 11.8001 94.9834 12.4723 95.2613 13.2426C95.5391 14.0129 95.678 14.8361 95.678 15.7121ZM93.3694 15.7121C93.3694 15.1533 93.2868 14.6284 93.1216 14.1375C92.964 13.6391 92.7312 13.2086 92.4234 12.8461C92.1231 12.476 91.7553 12.1853 91.3198 11.9738C90.8843 11.7548 90.3888 11.6453 89.8333 11.6453H85.8243C85.2688 11.6453 84.7695 11.7548 84.3267 11.9738C83.8912 12.1853 83.5195 12.476 83.2117 12.8461C82.9113 13.2086 82.6787 13.6391 82.5135 14.1375C82.3559 14.6284 82.2771 15.1533 82.2771 15.7121C82.2771 16.271 82.3559 16.7996 82.5135 17.2981C82.6787 17.7889 82.9113 18.2194 83.2117 18.5894C83.5195 18.9595 83.8912 19.254 84.3267 19.4732C84.7695 19.6845 85.2688 19.7903 85.8243 19.7903H89.8333C90.3888 19.7903 90.8843 19.6845 91.3198 19.4732C91.7553 19.254 92.1231 18.9595 92.4234 18.5894C92.7312 18.2194 92.964 17.7889 93.1216 17.2981C93.2868 16.7996 93.3694 16.271 93.3694 15.7121ZM113.847 22.1125H110.705L107.102 18.6575H102.428V16.3578H108.813C109.136 16.3578 109.44 16.2936 109.726 16.1652C110.011 16.0369 110.259 15.8669 110.469 15.6555C110.679 15.4365 110.844 15.1835 110.964 14.8965C111.084 14.6095 111.144 14.3074 111.144 13.9902C111.144 13.6655 111.084 13.3634 110.964 13.084C110.844 12.797 110.679 12.5478 110.469 12.3363C110.259 12.1249 110.011 11.9587 109.726 11.8379C109.44 11.7095 109.136 11.6453 108.813 11.6453H101.223V22.1125H98.9148V9.35704H108.813C109.452 9.35704 110.052 9.48165 110.615 9.73087C111.178 9.97253 111.666 10.3048 112.079 10.7277C112.5 11.1431 112.83 11.634 113.07 12.2004C113.31 12.7593 113.431 13.3559 113.431 13.9902C113.431 14.5113 113.348 15.0135 113.183 15.4969C113.018 15.9727 112.785 16.4107 112.485 16.811C112.192 17.2037 111.843 17.5435 111.437 17.8305C111.032 18.1175 110.589 18.3289 110.108 18.4649L113.847 22.1125ZM130.767 18.3516C130.767 18.8727 130.669 19.3635 130.474 19.8242C130.279 20.2774 130.012 20.6738 129.674 21.0138C129.344 21.3534 128.95 21.6217 128.492 21.818C128.041 22.0143 127.557 22.1125 127.039 22.1125H116.262V19.7903H127.039C127.242 19.7903 127.43 19.7563 127.602 19.6883C127.783 19.6127 127.936 19.5109 128.064 19.3825C128.199 19.2466 128.304 19.0916 128.379 18.918C128.454 18.7443 128.492 18.5555 128.492 18.3516C128.492 18.1477 128.454 17.9589 128.379 17.7852C128.304 17.6039 128.199 17.4491 128.064 17.3207C127.936 17.1848 127.783 17.0791 127.602 17.0035C127.43 16.928 127.242 16.8902 127.039 16.8902H119.978C119.468 16.8902 118.987 16.7921 118.537 16.5957C118.086 16.3994 117.692 16.1313 117.355 15.7914C117.017 15.444 116.75 15.04 116.555 14.5793C116.36 14.1186 116.262 13.6277 116.262 13.1067C116.262 12.6007 116.36 12.1211 116.555 11.668C116.75 11.2073 117.017 10.807 117.355 10.4672C117.692 10.1274 118.086 9.85925 118.537 9.6629C118.987 9.459 119.468 9.35704 119.978 9.35704H129.922V11.6453H119.978C119.783 11.6453 119.595 11.6869 119.415 11.7699C119.243 11.8455 119.092 11.9512 118.965 12.0871C118.837 12.2155 118.736 12.3703 118.661 12.5516C118.586 12.7253 118.548 12.9103 118.548 13.1067C118.548 13.3106 118.586 13.5031 118.661 13.6844C118.736 13.8581 118.837 14.0129 118.965 14.1488C119.092 14.2772 119.243 14.3792 119.415 14.4547C119.595 14.5302 119.783 14.568 119.978 14.568H127.039C127.557 14.568 128.041 14.6699 128.492 14.8738C128.95 15.0702 129.344 15.3421 129.674 15.6895C130.012 16.0293 130.279 16.4296 130.474 16.8902C130.669 17.3509 130.767 17.838 130.767 18.3516Z" fill="#FFC700"/>
<path d="M166.014 13.9902C166.014 15.1155 165.833 16.1728 165.473 17.1621C165.12 18.1515 164.617 19.0124 163.964 19.745C163.311 20.4775 162.526 21.0553 161.61 21.4781C160.702 21.901 159.692 22.1125 158.581 22.1125H150.439V19.7903H158.581C159.377 19.7903 160.09 19.6392 160.721 19.3372C161.359 19.0351 161.896 18.6235 162.331 18.1024C162.774 17.5737 163.112 16.9582 163.345 16.2559C163.585 15.546 163.705 14.7908 163.705 13.9902C163.705 13.1897 163.585 12.4383 163.345 11.7359C163.112 11.0336 162.774 10.4219 162.331 9.90079C161.896 9.37214 161.359 8.95679 160.721 8.6547C160.09 8.34507 159.377 8.19025 158.581 8.19025H149.29V22.1125H146.982V5.86798H158.581C159.692 5.86798 160.702 6.08322 161.61 6.51368C162.526 6.93659 163.311 7.51812 163.964 8.25822C164.617 8.99077 165.12 9.85171 165.473 10.841C165.833 11.8228 166.014 12.8725 166.014 13.9902ZM171.66 22.1125H169.374V9.35704H171.66V22.1125ZM190.607 22.1125H187.465L183.861 18.6575H179.188V16.3578H185.573C185.896 16.3578 186.2 16.2936 186.485 16.1652C186.771 16.0369 187.018 15.8669 187.229 15.6555C187.438 15.4365 187.604 15.1835 187.724 14.8965C187.843 14.6095 187.905 14.3074 187.905 13.9902C187.905 13.6655 187.843 13.3634 187.724 13.084C187.604 12.797 187.438 12.5478 187.229 12.3363C187.018 12.1249 186.771 11.9587 186.485 11.8379C186.2 11.7095 185.896 11.6453 185.573 11.6453H177.983V22.1125H175.674V9.35704H185.573C186.211 9.35704 186.811 9.48165 187.375 9.73087C187.937 9.97253 188.425 10.3048 188.838 10.7277C189.259 11.1431 189.589 11.634 189.829 12.2004C190.07 12.7593 190.189 13.3559 190.189 13.9902C190.189 14.5113 190.108 15.0135 189.942 15.4969C189.777 15.9727 189.544 16.4107 189.243 16.811C188.951 17.2037 188.602 17.5435 188.196 17.8305C187.791 18.1175 187.348 18.3289 186.868 18.4649L190.607 22.1125ZM206.861 22.1125H193.618V9.31173H206.861V11.6453H195.95V19.7675H206.861V22.1125ZM205.386 16.8223H197.041V14.4774H205.386V16.8223ZM223.364 22.1125H215.177C214.285 22.1125 213.474 21.9463 212.744 21.6141C212.016 21.2818 211.393 20.8287 210.876 20.2547C210.357 19.6733 209.957 18.9936 209.67 18.2156C209.393 17.4302 209.254 16.5882 209.254 15.6895C209.254 14.7983 209.393 13.9676 209.67 13.1973C209.957 12.4194 210.357 11.7435 210.876 11.1695C211.393 10.5956 212.016 10.1425 212.744 9.81017C213.474 9.47788 214.285 9.31173 215.177 9.31173H223.364V11.6453H215.177C214.622 11.6453 214.119 11.751 213.668 11.9625C213.225 12.174 212.85 12.4609 212.542 12.8235C212.234 13.1859 211.998 13.6126 211.832 14.1035C211.668 14.5944 211.586 15.1231 211.586 15.6895C211.586 16.2634 211.668 16.7996 211.832 17.2981C211.998 17.7889 212.234 18.2194 212.542 18.5894C212.85 18.9519 213.225 19.239 213.668 19.4503C214.119 19.6618 214.622 19.7675 215.177 19.7675H223.364V22.1125ZM233.64 22.1125H231.332V11.6453H225.227V9.35704H239.732V11.6453H233.64V22.1125Z" fill="#F9F9F9"/>
<path d="M139.099 0.90625V28.0938" stroke="#F9F9F9" stroke-width="2" stroke-linecap="round"/>
</g>
<defs>
<clipPath id="clip0_200_481">
<rect width="240" height="29" fill="white"/>
</clipPath>
</defs>
</svg>
